<?xml version="1.0" encoding="UTF-8"?>
<svg id="Layer_2" data-name="Layer 2" xmlns="http://www.w3.org/2000/svg" viewBox="0 0 505.09 804.12">
  <defs>
    <style>
      .cls-1 {
        stroke-width: 0px;
      }
    </style>
  </defs>
  <g id="Layer_3" data-name="Layer 3">
    <path class="cls-1" d="m42.49,15.05c-7.56,2.22-14.96,4.91-22.18,8.04-5.69,2.47-11.72,5.23-15.87,10.02-2.03,2.35-3.53,5.13-4.09,8.2-.69,3.76-.21,7.54.22,11.3.95,8.24,1.9,16.47,2.85,24.71s1.9,16.47,2.85,24.71c.89,7.69,1.63,15.44,3.36,23s4.75,14.42,8.57,21.1c4.07,7.11,8.29,14.13,12.44,21.19,4.26,7.25,8.32,14.68,13.02,21.67,4.14,6.17,9.03,11.91,15.42,15.83,1.65,1.01,3.16-1.58,1.51-2.59-5.59-3.43-9.97-8.4-13.66-13.76-3.97-5.76-7.37-11.91-10.91-17.93-4.05-6.89-8.1-13.78-12.15-20.66-3.76-6.4-7.56-12.78-9.8-19.9s-3.22-14.4-4.08-21.72c-.92-7.84-1.81-15.69-2.72-23.54s-1.84-15.98-2.77-23.97c-.46-3.95-.99-7.89-1.35-11.85-.31-3.42-.37-7,1.12-10.18,2.79-5.96,9.22-9.3,14.93-11.89,7.8-3.53,15.86-6.48,24.07-8.89,1.85-.54,1.06-3.44-.8-2.89h0Z"/>
    <path class="cls-1" d="m43.44,129.65c7.46,3.4,14.27,8.06,20.11,13.82,1.38,1.36,3.5-.76,2.12-2.12-6.01-5.93-13.04-10.79-20.72-14.29-.74-.34-1.61-.21-2.05.54-.38.64-.2,1.72.54,2.05h0Z"/>
    <path class="cls-1" d="m39.77,91.41c5.75,2.22,11.01,5.62,15.44,9.92,1.39,1.35,3.51-.77,2.12-2.12-4.81-4.67-10.51-8.28-16.76-10.69-.76-.29-1.65.32-1.85,1.05-.23.85.29,1.55,1.05,1.85h0Z"/>
    <path class="cls-1" d="m38.46,170c6.29,1.19,12.71,1.49,19.08.8.81-.09,1.5-.63,1.5-1.5,0-.74-.69-1.59-1.5-1.5-6.1.66-12.26.45-18.29-.69-1.89-.36-2.7,2.53-.8,2.89h0Z"/>
    <path class="cls-1" d="m27.19,37.63c6.1,5.48,11,12.13,14.43,19.57.81,1.75,3.39.23,2.59-1.51-3.53-7.65-8.63-14.55-14.9-20.18-1.43-1.29-3.56.83-2.12,2.12h0Z"/>
    <path class="cls-1" d="m50.19,56.3c-.96-7.67-1.91-15.33-2.87-23-.46-3.66-.98-7.31-1.34-10.97-.28-2.78-.44-5.64-.03-8.41s1.4-5.39,3.46-7.29c2.19-2.03,5.27-2.78,8.16-3.1,3.44-.38,6.95-.41,10.41-.47s7.14,0,10.69.4c12.9,1.47,23.64,9.19,31.32,19.38,8.58,11.37,13.47,25.02,18.67,38.14,3.2,8.07,6.4,16.14,9.59,24.22,3.04,7.7,5.96,15.49,7.33,23.68.32,1.9,3.21,1.09,2.89-.8-1.3-7.73-3.97-15.1-6.82-22.37s-5.89-14.88-8.83-22.32c-5.47-13.8-10.42-28.27-19.08-40.48-7.48-10.54-18.05-19.36-31.01-21.84-7.35-1.41-14.95-1.13-22.38-.74-6.17.32-12.74,1.76-15.74,7.79-3.18,6.39-1.67,14.04-.83,20.79,1.14,9.13,2.28,18.27,3.41,27.4.24,1.89,3.24,1.91,3,0h0Z"/>
    <path class="cls-1" d="m45.82,54.97c.69,10.84,3.83,21.24,7.16,31.51s6.57,20.62,8.25,31.38c3.37,21.6,1.9,43.6.35,65.29-1.56,21.88-3.37,43.93-.88,65.81,2.3,20.26,8.61,39.76,17.47,58.07s20.13,35.4,32.44,51.58c1.52,2,3.05,3.98,4.6,5.96,1.19,1.52,3.3-.62,2.12-2.12-12.46-15.91-24.01-32.63-33.37-50.56-9.31-17.83-16.35-36.94-19.45-56.87-3.34-21.51-1.96-43.41-.42-65.01s3.37-43.2,1.1-64.73c-1.13-10.76-3.46-21.22-6.71-31.53s-6.92-20.28-8.73-30.84c-.45-2.63-.76-5.28-.93-7.94-.12-1.92-3.12-1.93-3,0h0Z"/>
    <path class="cls-1" d="m111.16,20.42c16.54.37,33.44,2.94,49.05,8.57,7.42,2.68,13.29,6.89,16.89,14.05s5.44,15.27,7.79,22.88c10.45,33.85,20.9,67.7,31.35,101.55,5.2,16.84,10.4,33.68,15.59,50.52,4.85,15.7,9.15,31.74,15.24,47.02,4.36,10.93,10.26,20.59,17.22,30.01,6.08,8.23,12.29,16.35,18.55,24.44,9.74,12.59,19.16,25.56,31.03,36.24,7.76,6.99,15.7,13.78,23.55,20.67,6.57,5.76,13.38,11.45,19.36,17.83,7.71,8.22,15.48,16.32,23.48,24.26,13.69,13.59,27.46,27.1,41.09,40.75,14.92,14.94,29.72,30,44.06,45.5,11.39,12.31,22.94,24.84,32.5,38.66,1.55,2.25,3.04,4.55,4.37,6.93.94,1.69,3.53.17,2.59-1.51-7.17-12.83-17.48-24.12-27.2-35.04-13.83-15.53-28.31-30.49-42.91-45.29s-28.92-28.93-43.47-43.3c-9.68-9.57-19.58-19.01-28.79-29.04-11.21-12.21-24.01-22.77-36.48-33.66-6.05-5.29-12.42-10.45-17.9-16.34-5.16-5.55-9.76-11.68-14.45-17.62-6.81-8.63-13.52-17.33-20.14-26.1-5.65-7.48-11.65-14.94-16.34-23.08-8.05-13.96-12.45-29.65-17.17-44.96-5.25-17.01-10.5-34.02-15.75-51.03-10.5-34.02-21-68.04-31.5-102.05-2.65-8.59-5.3-17.18-7.95-25.77-2.05-6.65-4.05-13.6-8.37-19.19s-10.55-8.6-17.06-10.79c-7.93-2.66-16.14-4.58-24.38-5.93s-15.85-2.01-23.84-2.19c-1.93-.04-1.93,2.96,0,3h0Z"/>
    <path class="cls-1" d="m113.5,363.25c16.38,10.96,27.13,27.87,37.67,44.1,5.59,8.61,11.34,17.05,17.63,25.16,7.26,9.35,14.94,18.37,22.53,27.45,23.61,28.23,48.09,55.82,69.24,85.99,18.92,27,36.47,54.95,53.93,82.9,18.9,30.26,37.55,60.67,56.84,90.69,16.84,26.2,34.02,52.34,53.33,76.81,1.93,2.44,3.88,4.86,5.86,7.26,1.23,1.49,3.34-.64,2.12-2.12-19.3-23.32-36.15-48.68-52.63-74.03-19.48-29.97-38.2-60.42-57.1-90.76-17.75-28.5-35.54-57.03-54.54-84.72-7.83-11.41-15.88-22.69-24.45-33.55-13.01-16.49-26.88-32.36-40.35-48.47-14.94-17.86-30.6-35.37-43.64-54.71-10.7-15.87-20.23-33-34.36-46.19-3.29-3.08-6.83-5.88-10.58-8.39-1.61-1.08-3.11,1.52-1.51,2.59h0Z"/>
  </g>
</svg>